<svg width="1356" height="677" viewBox="0 0 1356 677" fill="none" xmlns="http://www.w3.org/2000/svg">
<path d="M203.001 639C203.001 618.474 217.827 601 242.191 601C253.284 601 260.853 604.684 268.318 610.474L260.335 622.579C256.395 619.421 249.863 615.947 242.709 615.947C224.98 615.947 219.071 628.684 219.071 639.211C219.071 652.474 228.298 662.053 241.465 662.053C245.923 662.053 251.004 661.316 254.84 659.316V648.789H236.489V635.737H269.873V665.737C259.09 675.526 248.204 677 241.569 677C219.278 677 203.001 659.842 203.001 639Z" fill="#75B1A8"/>
<path d="M386.86 675.842H370.79V602.158H402.619C417.549 602.158 425.947 613.316 425.947 626.263C425.947 639.316 417.549 649.842 402.619 649.842H386.86V675.842ZM386.86 637H400.546C406.352 637 409.773 632.474 409.773 626.158C409.773 619.526 406.352 615.105 400.546 615.105H386.86V637Z" fill="#75B1A8"/>
<path d="M540.672 675.842H524.602V602.158H556.431C571.361 602.158 579.759 613.316 579.759 626.263C579.759 639.316 571.361 649.842 556.431 649.842H540.672V675.842ZM540.672 637H554.357C560.163 637 563.585 632.474 563.585 626.158C563.585 619.526 560.163 615.105 554.357 615.105H540.672V637Z" fill="#75B1A8"/>
<path d="M833.881 604.579L847.152 647.316L860.733 602.158H877.115L854.305 675.842H841.553L827.868 631.211L814.182 675.842H801.43L778.621 602.158H795.002L808.583 647.316L821.958 604.579H833.881Z" fill="#75B1A8"/>
<path d="M963.335 648.789C963.335 631.947 977.124 620.684 992.572 620.684C1008.02 620.684 1021.81 632.053 1021.81 648.789C1021.81 665.632 1008.02 677 992.572 677C977.124 677 963.335 665.737 963.335 648.789ZM978.368 648.789C978.368 657.316 985.003 663.526 992.572 663.526C1000.35 663.526 1006.78 657.211 1006.78 648.789C1006.78 640.474 1000.35 634.158 992.572 634.158C985.003 634.158 978.368 640.368 978.368 648.789Z" fill="#75B1A8"/>
<path d="M1115.53 648.789C1115.53 631.947 1129.32 620.684 1144.76 620.684C1160.21 620.684 1174 632.053 1174 648.789C1174 665.632 1160.21 677 1144.76 677C1129.32 677 1115.53 665.737 1115.53 648.789ZM1130.56 648.789C1130.56 657.316 1137.2 663.526 1144.76 663.526C1152.54 663.526 1158.97 657.211 1158.97 648.789C1158.97 640.474 1152.54 634.158 1144.76 634.158C1137.2 634.158 1130.56 640.368 1130.56 648.789Z" fill="#75B1A8"/>
<g clip-path="url(#clip0_82_1568)">
<path d="M1161.61 105C1269.35 105 1357 192.696 1357 300.493C1357 408.291 1269.35 495.988 1161.61 495.988V496C1065.12 496 1023.96 418.985 990.906 357.088C984.895 345.836 978.68 334.202 972.313 323.203C965.171 310.87 958.588 298.548 952.221 286.621C917.666 221.953 899.786 195.62 861.394 195.62C803.595 195.62 756.573 242.666 756.573 300.493C756.573 358.321 803.595 405.367 861.394 405.367C876.745 405.367 887.7 402.138 901.476 395.768C924.186 385.278 951.09 395.183 961.587 417.905C972.071 440.626 962.172 467.543 939.462 478.046C913.689 489.96 889.962 496 861.394 496C753.651 496 666 408.304 666 300.506C666 192.708 753.651 105.013 861.394 105.013C957.876 105.013 999.026 182.028 1032.09 243.912C1038.1 255.165 1044.32 266.799 1050.69 277.797C1057.83 290.131 1064.41 302.452 1070.78 314.366C1105.33 379.035 1123.23 405.367 1161.61 405.367C1219.4 405.367 1266.43 358.321 1266.43 300.493C1266.43 242.666 1219.4 195.62 1161.61 195.62C1146.34 195.62 1135.48 198.812 1121.77 205.106C1099.04 215.545 1072.15 205.576 1061.72 182.829C1051.28 160.082 1061.25 133.189 1083.98 122.75C1109.63 110.976 1133.2 105 1161.61 105Z" fill="#75B1A8"/>
</g>
<path d="M22.8164 113.558C44.8735 99.384 74.2428 105.776 88.4141 127.835L278.579 423.849C292.75 445.909 286.357 475.282 264.3 489.457C242.243 503.631 212.874 497.238 198.703 475.18L8.53808 179.165C-5.63285 157.106 0.759805 127.733 22.8164 113.558ZM633.588 21.8172C647.759 -0.241962 677.128 -6.6336 699.186 7.54087C721.242 21.7154 727.635 51.0883 713.464 73.1473L455.191 475.18C445.967 489.539 430.302 497.257 414.406 496.987C398.503 497.265 382.828 489.547 373.599 475.181L250.364 283.351C236.193 261.292 242.586 231.92 264.643 217.745C286.7 203.571 316.069 209.962 330.24 232.021L414.395 363.017L633.588 21.8172Z" fill="#75B1A8"/>
<line x1="654" y1="645.5" x2="724" y2="645.5" stroke="#75B1A8" stroke-width="3"/>
<defs>
<clipPath id="clip0_82_1568">
<rect width="1356" height="497" fill="white"/>
</clipPath>
</defs>
</svg>
