<svg width="2212" height="497" viewBox="0 0 2212 497" fill="none" xmlns="http://www.w3.org/2000/svg">
<path d="M21.8164 113.558C43.8735 99.384 73.2428 105.776 87.4141 127.835L277.579 423.849C291.75 445.909 285.357 475.282 263.3 489.457C241.243 503.631 211.874 497.238 197.703 475.18L7.53808 179.165C-6.63285 157.106 -0.240195 127.733 21.8164 113.558ZM632.588 21.8172C646.759 -0.241962 676.128 -6.6336 698.186 7.54087C720.242 21.7154 726.635 51.0883 712.464 73.1473L454.191 475.18C444.967 489.539 429.302 497.257 413.406 496.987C397.503 497.265 381.828 489.547 372.599 475.181L249.364 283.351C235.193 261.292 241.586 231.92 263.643 217.745C285.7 203.571 315.069 209.962 329.24 232.021L413.395 363.017L632.588 21.8172Z" fill="#BDF2B8"/>
<path d="M1160.61 496C1064.12 496 1022.96 418.985 989.906 357.088C983.895 345.835 977.68 334.201 971.313 323.203C964.171 310.869 957.588 298.548 951.221 286.622C916.667 221.953 898.786 195.62 860.393 195.62C802.595 195.62 755.574 242.666 755.574 300.494C755.574 358.322 802.595 405.367 860.393 405.367C875.745 405.367 886.7 402.138 900.476 395.767C923.186 385.277 950.09 395.183 960.587 417.904C971.072 440.626 961.172 467.544 938.462 478.046C912.689 489.96 888.962 496 860.393 496C752.651 496 665 408.304 665 300.506C665 192.708 752.651 105.013 860.393 105.013C956.876 105.013 998.027 182.028 1031.09 243.912C1037.11 255.165 1043.32 266.799 1049.69 277.797C1056.83 290.131 1063.41 302.452 1069.78 314.366C1104.33 379.034 1122.23 405.367 1160.61 405.367C1218.4 405.367 1265.43 358.322 1265.43 300.494C1265.43 242.666 1218.4 195.62 1160.61 195.62C1145.34 195.62 1134.48 198.812 1120.77 205.105C1098.04 215.544 1071.15 205.576 1060.72 182.829C1050.28 160.082 1060.25 133.189 1082.98 122.75C1108.63 110.976 1132.2 105 1160.61 105C1268.35 105 1356 192.696 1356 300.494C1356 408.292 1268.35 495.987 1160.61 495.987V496Z" fill="#BDF2B8"/>
<path d="M1407 187.881C1407 170.676 1419.61 156.029 1440.34 156.029C1449.78 156.029 1456.22 159.117 1462.57 163.97L1455.78 174.117C1452.43 171.47 1446.87 168.558 1440.79 168.558C1425.7 168.558 1420.67 179.234 1420.67 188.058C1420.67 199.175 1428.52 207.204 1439.73 207.204C1443.52 207.204 1447.84 206.586 1451.11 204.91V196.087H1435.49V185.146H1463.9V210.292C1454.72 218.498 1445.46 219.733 1439.82 219.733C1420.85 219.733 1407 205.351 1407 187.881Z" fill="#BDF2B8"/>
<path d="M1493.31 183.205C1489.07 183.205 1483.51 185.146 1481.84 191.234H1504.51C1503.63 185.411 1497.72 183.205 1493.31 183.205ZM1507.95 203.586L1515.54 210.822C1509.18 217.88 1500.54 219.733 1494.45 219.733C1477.69 219.733 1468.52 209.233 1468.52 196.351C1468.52 183.028 1478.93 172.529 1493.48 172.529C1505.92 172.529 1518.01 181.176 1518.01 199.175H1481.57C1481.84 204.822 1486.95 208.969 1495.42 208.969C1500.1 208.969 1504.77 206.675 1507.95 203.586Z" fill="#BDF2B8"/>
<path d="M1523.05 218.762V173.499H1536.2V179.676C1539.99 174.382 1544.66 172.529 1550.22 172.529C1562.92 172.529 1566.37 182.587 1566.37 194.146V218.762H1553.22V194.41C1553.22 188.146 1550.93 183.381 1544.84 183.381C1538.75 183.381 1536.2 188.234 1536.2 194.499V218.762H1523.05Z" fill="#BDF2B8"/>
<path d="M1596.47 183.205C1592.24 183.205 1586.68 185.146 1585 191.234H1607.67C1606.79 185.411 1600.88 183.205 1596.47 183.205ZM1611.11 203.586L1618.7 210.822C1612.35 217.88 1603.7 219.733 1597.62 219.733C1580.86 219.733 1571.68 209.233 1571.68 196.351C1571.68 183.028 1582.09 172.529 1596.65 172.529C1609.09 172.529 1621.17 181.176 1621.17 199.175H1584.74C1585 204.822 1590.12 208.969 1598.59 208.969C1603.26 208.969 1607.94 206.675 1611.11 203.586Z" fill="#BDF2B8"/>
<path d="M1639.01 173.499V183.381C1640.42 175.176 1647.56 172.529 1651.45 172.529C1652.95 172.529 1653.39 172.617 1654.8 172.882V185.852C1652.95 185.411 1650.56 185.234 1649.24 185.234C1644.3 185.234 1639.36 188.146 1639.36 194.146V218.762H1626.22V173.499H1639.01Z" fill="#BDF2B8"/>
<path d="M1672.3 218.762H1659.15V173.499H1672.3V218.762ZM1657.57 161.5C1657.57 157 1661.01 154 1665.86 154C1670.53 154 1674.24 157 1674.24 161.5C1674.24 165.823 1670.53 168.823 1665.86 168.823C1661.01 168.823 1657.57 165.823 1657.57 161.5Z" fill="#BDF2B8"/>
<path d="M1703.11 183.205C1698.87 183.205 1693.31 185.146 1691.64 191.234H1714.31C1713.43 185.411 1707.52 183.205 1703.11 183.205ZM1717.75 203.586L1725.34 210.822C1718.98 217.88 1710.34 219.733 1704.25 219.733C1687.49 219.733 1678.32 209.233 1678.32 196.351C1678.32 183.028 1688.73 172.529 1703.28 172.529C1715.72 172.529 1727.81 181.176 1727.81 199.175H1691.37C1691.64 204.822 1696.75 208.969 1705.22 208.969C1709.9 208.969 1714.57 206.675 1717.75 203.586Z" fill="#BDF2B8"/>
<path d="M1745.91 191.852L1758.79 173.499H1773.34V175.264L1758.35 194.146L1764.26 203.586C1766.29 206.675 1767.87 207.645 1770.43 207.645C1771.4 207.645 1773.61 207.204 1775.28 206.057L1780.22 215.321C1776.08 218.939 1771.93 219.733 1768.4 219.733C1763.2 219.733 1758.61 218.145 1754.99 212.851L1745.91 198.204V218.762H1732.76V154.971H1745.91V191.852Z" fill="#BDF2B8"/>
<path d="M1454.56 332.896H1438.06C1438.06 332.896 1440.89 320 1440.89 302.015C1440.89 284.029 1438.56 271 1438.56 271L1467.97 271.133C1480.67 271.133 1487.82 280.486 1487.82 291.339C1487.82 302.279 1480.67 311.103 1467.97 311.103H1454.56V332.896ZM1454.56 300.338H1466.21C1471.15 300.338 1474.06 296.544 1474.06 291.25C1474.06 285.692 1471.15 281.986 1466.21 281.986H1454.56V300.338Z" fill="#BDF2B8"/>
<path d="M1536.12 287.633V332.896H1522.98V326.72C1519.18 332.014 1514.51 333.867 1508.95 333.867C1496.25 333.867 1492.81 323.72 1492.81 312.25V287.633H1505.95V311.985C1505.95 318.249 1508.24 323.014 1514.33 323.014C1520.42 323.014 1522.98 318.161 1522.98 311.897V287.633H1536.12Z" fill="#BDF2B8"/>
<path d="M1594.28 310.044C1594.28 323.279 1585.98 333.867 1572.22 333.867C1565.52 333.867 1561.28 330.955 1558.02 326.279V332.896H1544.88V269.104H1558.02V293.809C1561.11 289.662 1566.4 286.662 1572.49 286.662C1586.6 286.662 1594.28 297.338 1594.28 310.044ZM1581.13 310.132C1581.13 303.162 1577.07 297.338 1569.84 297.338C1562.7 297.338 1557.67 302.368 1557.67 310.838C1557.67 318.955 1563.05 323.19 1569.49 323.19C1576.81 323.19 1581.13 317.455 1581.13 310.132Z" fill="#BDF2B8"/>
<path d="M1613.61 332.896H1600.47V269.104H1613.61V332.896Z" fill="#BDF2B8"/>
<path d="M1635.78 332.896H1622.63V287.633H1635.78V332.896ZM1621.04 275.633C1621.04 271.133 1624.48 268.133 1629.34 268.133C1634.01 268.133 1637.72 271.133 1637.72 275.633C1637.72 279.957 1634.01 282.957 1629.34 282.957C1624.48 282.957 1621.04 279.957 1621.04 275.633Z" fill="#BDF2B8"/>
<path d="M1641.8 310.22C1641.8 296.809 1651.59 286.662 1667.11 286.662C1671.79 286.662 1677.88 287.633 1685.64 293.368L1679.64 302.985C1675.23 299.015 1670.02 298.485 1667.73 298.485C1659.97 298.485 1654.94 303.25 1654.94 310.22C1654.94 317.191 1659.97 321.955 1667.73 321.955C1670.02 321.955 1675.23 321.426 1679.64 317.455L1685.64 327.073C1677.88 332.808 1671.79 333.778 1667.11 333.778C1651.59 333.778 1641.8 323.632 1641.8 310.22Z" fill="#BDF2B8"/>
<path d="M1700.54 310.132C1700.54 317.455 1704.86 323.19 1712.18 323.19C1718.62 323.19 1724 318.955 1724 310.838C1724 302.368 1718.98 297.338 1711.83 297.338C1704.6 297.338 1700.54 303.162 1700.54 310.132ZM1723.65 287.633H1736.8V332.896H1723.65V326.279C1720.39 330.955 1716.15 333.867 1709.45 333.867C1695.69 333.867 1687.4 323.279 1687.4 310.044C1687.4 297.338 1695.07 286.662 1709.18 286.662C1715.27 286.662 1720.56 289.662 1723.65 293.809V287.633Z" fill="#BDF2B8"/>
<path d="M1761.69 276.516V287.633H1774.22V297.956H1761.69V319.132C1761.69 321.161 1762.48 323.102 1765.04 323.102C1767.6 323.102 1768.48 320.985 1768.48 318.867C1768.48 317.544 1768.13 315.691 1767.86 314.985H1778.27C1779.07 316.661 1779.33 318.691 1779.33 320.367C1779.33 327.073 1774.92 333.867 1764.25 333.867C1756.22 333.867 1748.55 330.955 1748.55 317.896V297.956H1741.75V287.633H1749.52L1751.55 276.516H1761.69Z" fill="#BDF2B8"/>
<path d="M1796.53 332.896H1783.39V287.633H1796.53V332.896ZM1781.8 275.633C1781.8 271.133 1785.24 268.133 1790.1 268.133C1794.77 268.133 1798.48 271.133 1798.48 275.633C1798.48 279.957 1794.77 282.957 1790.1 282.957C1785.24 282.957 1781.8 279.957 1781.8 275.633Z" fill="#BDF2B8"/>
<path d="M1827.34 297.338C1823.11 297.338 1817.55 299.279 1815.88 305.368H1838.55C1837.66 299.544 1831.75 297.338 1827.34 297.338ZM1841.99 317.72L1849.57 324.955C1843.22 332.014 1834.58 333.867 1828.49 333.867C1811.73 333.867 1802.56 323.367 1802.56 310.485C1802.56 297.162 1812.96 286.662 1827.52 286.662C1839.96 286.662 1852.04 295.309 1852.04 313.308H1815.61C1815.88 318.955 1820.99 323.102 1829.46 323.102C1834.14 323.102 1838.81 320.808 1841.99 317.72Z" fill="#BDF2B8"/>
<path d="M1872.01 332.896H1858.34V271.133H1885.42C1898.12 271.133 1905.26 280.486 1905.26 291.339C1905.26 302.279 1898.12 311.103 1885.42 311.103H1872.01V332.896ZM1872.01 300.338H1883.65C1888.59 300.338 1891.5 296.544 1891.5 291.25C1891.5 285.692 1888.59 281.986 1883.65 281.986H1872.01V300.338Z" fill="#BDF2B8"/>
<path d="M1924.1 332.896H1910.96V269.104H1924.1V332.896Z" fill="#BDF2B8"/>
<path d="M1943.44 310.132C1943.44 317.455 1947.77 323.19 1955.09 323.19C1961.53 323.19 1966.91 318.955 1966.91 310.838C1966.91 302.368 1961.88 297.338 1954.74 297.338C1947.5 297.338 1943.44 303.162 1943.44 310.132ZM1966.56 287.633H1979.7V332.896H1966.56V326.279C1963.29 330.955 1959.06 333.867 1952.35 333.867C1938.59 333.867 1930.3 323.279 1930.3 310.044C1930.3 297.338 1937.97 286.662 1952.09 286.662C1958.18 286.662 1963.47 289.662 1966.56 293.809V287.633Z" fill="#BDF2B8"/>
<path d="M2004.59 276.516V287.633H2017.12V297.956H2004.59V319.132C2004.59 321.161 2005.39 323.102 2007.95 323.102C2010.5 323.102 2011.39 320.985 2011.39 318.867C2011.39 317.544 2011.03 315.691 2010.77 314.985H2021.18C2021.97 316.661 2022.24 318.691 2022.24 320.367C2022.24 327.073 2017.83 333.867 2007.15 333.867C1999.12 333.867 1991.45 330.955 1991.45 317.896V297.956H1984.66V287.633H1992.42L1994.45 276.516H2004.59Z" fill="#BDF2B8"/>
<path d="M2042.18 282.868V287.986H2052.33V297.956H2042.18V332.896H2029.04V297.956H2022.69V287.986H2029.04V284.986C2029.04 271.839 2036.71 268.133 2044.74 268.133C2055.41 268.133 2059.21 274.927 2059.21 281.633C2059.21 282.074 2059.03 283.486 2058.77 284.104H2048.62C2048.89 283.839 2048.97 282.957 2048.97 282.604C2048.97 280.486 2048.09 278.633 2045.53 278.633C2042.98 278.633 2042.18 280.839 2042.18 282.868Z" fill="#BDF2B8"/>
<path d="M2054.16 310.22C2054.16 296.103 2065.89 286.662 2079.04 286.662C2092.18 286.662 2103.91 296.191 2103.91 310.22C2103.91 324.337 2092.18 333.867 2079.04 333.867C2065.89 333.867 2054.16 324.426 2054.16 310.22ZM2066.95 310.22C2066.95 317.367 2072.6 322.573 2079.04 322.573C2085.65 322.573 2091.12 317.279 2091.12 310.22C2091.12 303.25 2085.65 297.956 2079.04 297.956C2072.6 297.956 2066.95 303.162 2066.95 310.22Z" fill="#BDF2B8"/>
<path d="M2122.52 287.633V297.515C2123.93 289.309 2131.08 286.662 2134.96 286.662C2136.46 286.662 2136.9 286.75 2138.31 287.015V299.985C2136.46 299.544 2134.08 299.368 2132.75 299.368C2127.81 299.368 2122.87 302.279 2122.87 308.279V332.896H2109.73V287.633H2122.52Z" fill="#BDF2B8"/>
<path d="M2191.27 297.515C2185.54 297.515 2183.77 302.544 2183.77 308.632V332.896H2170.72V308.544C2170.72 302.368 2169.04 297.515 2163.13 297.515C2157.4 297.515 2155.63 302.544 2155.63 308.632V332.896H2142.49V287.633H2155.63V293.809C2158.54 289.309 2162.78 286.662 2167.72 286.662C2174.69 286.662 2179.18 289.662 2181.57 294.25C2185.09 287.633 2191.45 286.662 2195.86 286.662C2208.56 286.662 2212 296.721 2212 308.279V332.896H2198.86V308.544C2198.86 302.368 2197.18 297.515 2191.27 297.515Z" fill="#BDF2B8"/>
<path d="M1461.6 387.296L1472.89 423.118L1484.45 385.267H1498.38L1478.98 447.029H1468.13L1456.48 409.619L1444.84 447.029H1433.99L1414.58 385.267H1428.52L1440.08 423.118L1451.46 387.296H1461.6Z" fill="#BDF2B8"/>
<path d="M1495 424.354C1495 410.237 1506.73 400.796 1519.88 400.796C1533.02 400.796 1544.75 410.325 1544.75 424.354C1544.75 438.471 1533.02 448 1519.88 448C1506.73 448 1495 438.559 1495 424.354ZM1507.79 424.354C1507.79 431.501 1513.44 436.706 1519.88 436.706C1526.49 436.706 1531.96 431.412 1531.96 424.354C1531.96 417.383 1526.49 412.089 1519.88 412.089C1513.44 412.089 1507.79 417.295 1507.79 424.354Z" fill="#BDF2B8"/>
<path d="M1547.74 424.354C1547.74 410.237 1559.48 400.796 1572.62 400.796C1585.76 400.796 1597.5 410.325 1597.5 424.354C1597.5 438.471 1585.76 448 1572.62 448C1559.48 448 1547.74 438.559 1547.74 424.354ZM1560.54 424.354C1560.54 431.501 1566.18 436.706 1572.62 436.706C1579.24 436.706 1584.71 431.412 1584.71 424.354C1584.71 417.383 1579.24 412.089 1572.62 412.089C1566.18 412.089 1560.54 417.295 1560.54 424.354Z" fill="#BDF2B8"/>
</svg>
